# Blender 4.4.0
# www.blender.org
mtllib lCollar.mtl
o obj_file.008
v -0.151252 -0.944157 6.790469
v 0.133220 -2.172109 7.098722
v -1.031356 -2.791711 5.540291
v -1.276788 -1.455517 5.337618
v -2.069165 -3.494906 4.077645
v -2.166486 -2.062186 3.915392
v -2.556094 -4.183333 2.376807
v -2.849329 -2.656455 2.238064
v -2.619274 -4.820290 0.712786
v -2.976820 -3.252291 0.379418
v -2.099102 -5.192158 -1.151986
v -2.413763 -3.586954 -1.470047
v -0.700751 -5.444203 -2.778566
v -1.030792 -3.871483 -2.984753
v 0.824971 -5.499079 -3.745289
v 0.645142 -3.950588 -4.004267
v 2.636171 -5.163214 -4.444799
v 2.410646 -3.724803 -4.703658
v 4.597429 -4.843612 -4.877308
v 4.499519 -3.418132 -5.022467
v 6.853763 -4.495158 -4.952065
v 6.772648 -3.056193 -5.012989
v 6.728623 -2.910334 -4.810945
v 4.486016 -3.269320 -4.825477
v 2.438479 -3.545261 -4.530226
v 0.696975 -3.742953 -3.847756
v -0.962155 -3.645308 -2.877714
v -2.275944 -3.383713 -1.397098
v -2.828921 -3.042722 0.399257
v -2.716078 -2.483968 2.188835
v -2.012304 -1.945651 3.833760
v -1.123451 -1.362131 5.241013
v -0.013264 -0.856499 6.686836
v 0.227809 -2.330254 7.192828
v -0.912068 -2.951237 5.610824
v -1.993653 -3.688339 4.162229
v -2.443310 -4.370165 2.436091
v -2.509789 -5.004237 0.786753
v -1.972037 -5.389887 -1.031698
v -0.571139 -5.627855 -2.682544
v 0.925568 -5.655543 -3.632625
v 2.761374 -5.316237 -4.319036
v 4.706741 -5.017512 -4.730319
v 6.898931 -4.655787 -4.785873
v -0.758934 -3.390785 5.417434
v -1.767414 -5.132602 2.490916
v -1.504133 -4.169580 4.209448
v -2.043983 -5.671941 0.182779
v 0.132034 -2.589746 6.311714
v -0.299130 -5.646326 -2.500905
v 5.316322 -4.197454 -4.387589
v -0.192685 -6.798350 -2.390057
v 3.840124 -4.660766 -4.249806
v -1.516764 -5.828043 -1.321443
v 6.690678 -3.629862 -4.365252
v 4.574733 -5.713961 -4.170021
v 1.322434 -6.558354 -3.197724
v 7.885028 -3.036708 -4.256979
v 0.968050 -5.431615 -3.341384
v 6.200697 -5.183019 -4.255109
v 2.426996 -5.084763 -3.860218
v 2.949039 -6.193050 -3.868792
v 6.774663 -1.080047 -4.295550
v 6.764392 -0.415780 -4.232671
v 6.534086 1.512238 -3.942908
v 6.237333 2.563457 -3.776157
v 0.475578 0.369251 -4.455468
v -2.957213 0.107214 -2.179344
v 3.155173 4.492915 -4.596673
v 1.711356 3.304086 -4.680157
v -0.078044 3.457359 -4.429371
v -1.832775 3.672174 -3.636010
v -3.081172 3.845391 -2.139896
v -3.652072 3.910402 -0.239611
v -3.437408 4.143709 1.708175
v -2.540946 4.212882 3.391863
v -3.710506 0.013479 -0.130033
v -3.237395 0.280165 2.245355
v -1.285191 4.079860 4.576725
v -3.607426 2.103542 1.928187
v -3.858428 1.747995 -0.164022
v -1.310142 1.597641 4.946449
v -1.638144 1.808518 -3.699370
v 0.052246 1.876387 -4.554697
v -3.138235 1.795961 -2.185767
v 4.592146 4.093055 -4.235745
v 4.725146 2.699899 -4.232709
v 1.974770 1.864918 -4.679916
v 3.482424 1.705468 -4.618741
v 2.194804 0.425994 -4.697306
v 3.431249 3.014183 -4.522352
v -2.504418 2.620515 3.584265
v -1.373660 2.758855 4.735739
v 5.008822 1.619253 -4.317741
v 2.132796 2.182892 7.612618
v -0.379349 1.690698 5.713582
v 1.444362 4.512025 5.607835
v -0.429779 0.990233 5.704048
v -0.996873 0.644418 5.172519
v -2.599537 -1.373209 2.677313
v -3.120571 -1.313931 1.640779
v 4.468442 -3.125814 -4.450959
v 6.014779 -1.270502 -4.409941
v -2.568521 -1.400623 -1.998482
v 0.917512 2.467730 6.457655
v -2.184365 -2.163020 2.982042
v -2.582016 -2.512634 1.693822
v -1.228210 -1.344124 -3.544894
v -2.635805 -2.729684 -0.060750
v 4.901669 -1.574122 -4.510575
v 0.879979 -1.248259 -4.392515
v -2.180863 -2.765552 -1.788825
v 0.581589 -2.769442 -3.851768
v 3.584350 -1.967289 -4.488714
v 2.744943 -0.882472 -4.577781
v 3.117228 -3.571595 -4.294357
v 1.636351 -3.078187 -4.098628
v 4.242561 -0.522528 -4.543992
v -0.372264 -1.632186 5.462484
v -1.033026 -0.731715 4.866540
v 1.517486 0.989312 7.459227
v 5.721788 -2.610709 -4.456492
v 0.673707 -4.170652 -3.531821
v 5.572906 -0.401991 -4.410976
v 0.170105 0.680655 6.220992
v 6.803716 -2.115078 -4.346654
v 2.352375 -2.448178 -4.310055
v -1.492981 0.290291 -3.736510
v 1.932415 -4.018769 -3.983975
v -0.972104 -2.743932 -3.171227
v 5.749682 3.674779 -3.698110
v -1.730551 -1.508736 3.982401
v -0.240358 2.718414 5.622628
v -0.057894 3.825032 5.434404
v -3.284501 -1.419651 -0.172456
v -0.396734 -0.041538 5.646114
v 1.622288 4.823888 -4.640061
v -0.085145 5.252154 -4.302019
v -1.604172 5.622681 -3.401968
v -2.617093 5.872066 -1.969384
v -3.069555 6.064312 -0.213342
v -2.930819 6.116583 1.572729
v -2.162721 5.956892 3.245801
v -0.950312 5.481731 4.438418
v 0.267326 4.968239 5.195856
v 3.787823 0.537327 -4.612190
v 5.275972 0.558254 -4.395051
v 6.729398 0.506512 -4.104925
v -1.723664 -3.149443 3.489122
v 1.229272 3.532221 6.191515
v 0.959117 0.028961 6.994156
v 0.307398 -0.803252 6.308795
v -1.203688 -2.435689 4.615819
v -1.998573 -3.776494 1.969821
v -1.739747 0.085528 4.374531
v -2.191176 -4.305068 0.106139
v 2.493074 3.376045 7.159145
v -1.776885 -4.375273 -1.584050
v -0.555938 -4.333295 -2.751687
v 0.597783 1.531379 6.469116
v 2.677355 4.284515 6.257746
v -2.412774 -0.593186 3.352319
v -2.347922 1.095219 3.880651
v -1.055076 -5.137050 5.349072
v -1.394681 -6.100742 4.164387
v -1.200527 -6.995469 5.459759
v -1.817217 -7.723886 4.697928
v -1.960796 -7.093567 3.431739
v -0.591386 -7.095562 7.719294
v -0.798708 -6.158255 6.520408
v -1.527321 -6.755941 -1.244046
v -1.500292 -9.001955 6.870743
v -1.708890 -8.254191 5.903644
v -0.979347 -7.749781 6.646596
v -0.734074 -8.610332 7.678220
v -0.315919 -8.107114 8.729030
v -2.604468 -7.867940 2.923128
v -2.592189 -7.571554 1.582522
v -2.102629 -6.514693 1.931024
v -2.406113 -9.209531 6.250922
v -2.470160 -8.697422 5.234071
v -3.320109 -9.395717 5.678444
v -3.314772 -9.045985 4.643713
v -3.367055 -8.580809 2.431187
v -3.224043 -8.580419 1.277814
v -3.352156 -8.760065 3.643574
v -2.538924 -8.239342 4.145978
v -2.998860 -8.694766 0.114621
v -2.346873 -9.110476 -0.918161
v -1.702600 -7.907643 -1.144278
v -2.435460 -7.555206 0.168901
v -2.157218 -6.669065 0.231199
vn -0.8029 -0.0503 0.5940
vn -0.8147 -0.0854 0.5735
vn -0.8035 0.1100 0.5850
vn -0.8254 0.0798 0.5589
vn -0.8893 -0.0862 0.4492
vn -0.8963 0.0448 0.4412
vn -0.9581 -0.1754 0.2263
vn -0.9746 -0.0392 0.2205
vn -0.9880 -0.1289 -0.0847
vn -0.9627 -0.2631 -0.0625
vn -0.8760 -0.1601 -0.4549
vn -0.8482 -0.3054 -0.4327
vn -0.6625 -0.1426 -0.7354
vn -0.6363 -0.2928 -0.7137
vn -0.4403 -0.1065 -0.8915
vn -0.4194 -0.2726 -0.8659
vn -0.2592 -0.0617 -0.9639
vn -0.2330 -0.2475 -0.9405
vn -0.0903 0.0161 -0.9958
vn -0.0719 -0.1916 -0.9788
vn -0.1200 -0.5762 -0.8084
vn -0.1596 0.7001 -0.6960
vn -0.1604 0.7652 -0.6235
vn -0.1289 0.7884 -0.6014
vn -0.2704 0.6975 -0.6636
vn -0.3773 0.6002 -0.7053
vn -0.5011 0.5470 -0.6706
vn -0.6694 0.5696 -0.4770
vn -0.7774 0.5867 -0.2267
vn -0.7541 0.6556 -0.0388
vn -0.6286 0.7773 0.0252
vn -0.5219 0.8519 0.0434
vn -0.4903 0.8685 0.0724
vn -0.7597 -0.1686 0.6281
vn -0.7565 -0.1813 0.6284
vn -0.8312 -0.2213 0.5101
vn -0.8818 -0.3735 0.2880
vn -0.8542 -0.5189 0.0328
vn -0.7260 -0.6258 -0.2852
vn -0.5248 -0.6676 -0.5282
vn -0.2695 -0.6737 -0.6881
vn -0.0951 -0.6668 -0.7391
vn 0.0285 -0.6629 -0.7482
vn 0.0770 -0.6578 -0.7493
vn -0.9482 -0.0211 0.3171
vn -0.9822 0.0165 0.1872
vn -0.9572 0.1158 0.2651
vn -0.9719 0.0239 0.2344
vn -0.8927 0.3636 0.2663
vn -0.8120 0.4833 0.3273
vn -0.9252 0.2389 0.2947
vn -0.5827 -0.2072 -0.7858
vn -0.5820 -0.1326 -0.8023
vn -0.8654 0.0350 -0.4999
vn -0.8285 -0.1417 -0.5418
vn -0.7174 0.4979 0.4873
vn -0.8923 0.2178 0.3955
vn -0.8988 0.2521 0.3585
vn -0.7384 0.5276 0.4200
vn -0.7915 0.5857 0.1743
vn -0.9529 0.2762 0.1254
vn -0.8733 0.4872 0.0053
vn -0.5705 0.6964 0.4353
vn -0.6006 0.7126 0.3626
vn -0.9600 0.1128 0.2563
vn -0.9512 0.1012 0.2914
vn -0.9474 0.0834 0.3091
vn -0.4761 0.8059 0.3519
vn -0.5506 0.7726 0.3161
vn -0.7385 0.6688 0.0854
vn -0.8195 0.5663 -0.0880
vn -0.6919 0.6648 0.2815
vn -0.6410 0.7347 0.2219
vn -0.8753 0.3586 -0.3246
vn -0.8219 0.2922 -0.4889
vn -0.7502 0.3629 -0.5528
vn -0.8134 0.4515 -0.3667
vn -0.9620 0.2040 -0.1813
vn -0.9966 -0.0225 -0.0791
vn -0.2502 -0.1816 -0.9510
vn -0.2417 -0.1568 -0.9576
vn -0.3963 -0.1814 -0.9000
vn -0.4024 -0.2127 -0.8904
vn -0.0191 -0.0937 -0.9954
vn -0.0326 -0.1261 -0.9915
vn -0.0930 -0.1295 -0.9872
vn -0.1199 -0.1341 -0.9837
vn 0.1093 -0.0087 -0.9940
vn 0.1445 0.0325 -0.9890
vn -0.0441 0.0267 -0.9987
vn -0.0931 0.0453 -0.9946
vn -0.3039 0.0485 -0.9515
vn -0.3420 0.1202 -0.9320
vn -0.6243 0.0772 -0.7774
vn -0.6399 0.2034 -0.7410
vn -0.8614 0.2656 -0.4330
vn -0.8724 0.1248 -0.4725
vn -0.9499 0.2953 -0.1028
vn -0.9810 0.1601 -0.1094
vn -0.9214 0.3004 0.2465
vn -0.9487 0.1734 0.2645
vn -0.7994 0.1657 0.5775
vn -0.7661 0.2841 0.5766
vn -0.6149 0.1832 0.7670
vn -0.5302 0.2762 0.8016
vn -0.9516 0.0038 0.3074
vn -0.9959 -0.0191 -0.0880
vn -0.9818 -0.1734 -0.0774
vn -0.9276 -0.1340 0.3487
vn -0.2496 -0.1004 -0.9631
vn -0.5568 -0.1352 -0.8195
vn -0.5933 -0.0376 -0.8041
vn -0.2761 -0.0270 -0.9607
vn -0.8361 -0.1622 -0.5240
vn -0.8618 -0.0232 -0.5066
vn 0.2946 0.1616 -0.9419
vn 0.2351 0.1634 -0.9581
vn 0.2217 0.1311 -0.9663
vn 0.2741 0.1030 -0.9562
vn -0.0281 0.0060 -0.9996
vn -0.0457 -0.0537 -0.9975
vn 0.1166 0.0538 -0.9917
vn 0.0925 0.0074 -0.9957
vn -0.5844 -0.2788 -0.7621
vn -0.3978 -0.2527 -0.8820
vn -0.8009 -0.0473 0.5970
vn -0.6880 0.0400 0.7246
vn -0.6649 0.1143 0.7382
vn -0.8063 0.0518 0.5892
vn -0.6016 0.3425 0.7216
vn -0.4868 0.4765 0.7321
vn -0.4353 0.4426 0.7840
vn -0.5670 0.2871 0.7721
vn -0.5568 0.1968 0.8070
vn -0.6109 0.1079 0.7843
vn -0.6343 0.1588 0.7566
vn 0.3817 0.0103 -0.9242
vn 0.3108 -0.0047 -0.9505
vn -0.4626 0.2771 0.8422
vn -0.6480 -0.0067 0.7616
vn -0.6777 0.0238 0.7349
vn -0.6849 -0.0812 0.7241
vn -0.7471 -0.1308 0.6517
vn -0.9313 -0.2883 0.2224
vn -0.8542 -0.2633 0.4483
vn -0.8159 -0.1818 0.5489
vn 0.0416 -0.0142 -0.9990
vn 0.0496 -0.0216 -0.9985
vn -0.0345 -0.0714 -0.9969
vn -0.0406 -0.0837 -0.9957
vn -0.2458 -0.2003 -0.9484
vn -0.9424 -0.3169 -0.1071
vn -0.1328 -0.1315 -0.9824
vn 0.0632 -0.0208 -0.9978
vn 0.1302 0.0574 -0.9898
vn 0.1139 0.0481 -0.9923
vn 0.1492 0.0962 -0.9841
vn 0.1406 0.0813 -0.9867
vn -0.8155 -0.2917 -0.4999
vn -0.5406 -0.2346 -0.8079
vn -0.7052 -0.0797 0.7045
vn -0.9299 -0.1178 0.3486
vn -0.8258 0.0155 0.5637
vn -0.7917 -0.1408 0.5944
vn -0.8704 -0.2627 0.4165
vn -0.5650 -0.2963 -0.7701
vn -0.3433 -0.2632 -0.9016
vn -0.6626 0.1912 0.7242
vn -0.0403 -0.0979 -0.9944
vn -0.9143 -0.3526 0.1992
vn -0.9326 -0.3515 -0.0815
vn -0.2435 -0.1729 -0.9544
vn -0.8242 -0.3218 -0.4660
vn -0.2264 -0.2097 -0.9512
vn -0.1248 -0.1577 -0.9796
vn 0.0878 0.0116 -0.9961
vn -0.9752 -0.2167 -0.0448
vn -0.9631 -0.1955 0.1851
vn 0.0650 -0.0164 -0.9978
vn 0.1742 0.0910 -0.9805
vn 0.1885 0.1251 -0.9741
vn 0.0880 0.0046 -0.9961
vn -0.8319 -0.2661 -0.4870
vn -0.7024 0.0520 0.7099
vn -0.3228 0.3378 0.8842
vn -0.7258 -0.0999 0.6806
vn -0.8291 0.1097 0.5482
vn -0.7742 0.1516 0.6145
vn -0.7550 0.0100 0.6557
vn -0.7170 -0.0392 0.6959
vn -0.1853 0.5679 0.8020
vn -0.1036 0.6851 0.7211
vt 0.736100 0.252100
vt 0.772000 0.252100
vt 0.772000 0.284800
vt 0.736100 0.284800
vt 0.698400 0.252100
vt 0.698400 0.284800
vt 0.658500 0.252100
vt 0.658500 0.284800
vt 0.615500 0.284800
vt 0.615500 0.252100
vt 0.571100 0.284800
vt 0.571100 0.252100
vt 0.528400 0.284800
vt 0.528400 0.252100
vt 0.489300 0.284800
vt 0.489300 0.252100
vt 0.452100 0.284800
vt 0.452100 0.252100
vt 0.415100 0.284800
vt 0.415100 0.252100
vt 0.375900 0.252100
vt 0.375900 0.284800
vt 0.415100 0.292600
vt 0.375900 0.292600
vt 0.452100 0.292600
vt 0.489300 0.292600
vt 0.528400 0.292600
vt 0.571100 0.292600
vt 0.615500 0.292600
vt 0.658500 0.292600
vt 0.698400 0.292600
vt 0.736100 0.292600
vt 0.772000 0.292600
vt 0.736100 0.244100
vt 0.772000 0.244100
vt 0.698400 0.244100
vt 0.658500 0.244100
vt 0.615500 0.244100
vt 0.571100 0.244100
vt 0.528400 0.244100
vt 0.489300 0.244100
vt 0.452100 0.244100
vt 0.415100 0.244100
vt 0.375900 0.244100
vt 0.726500 0.165700
vt 0.746000 0.195600
vt 0.704700 0.195600
vt 0.693400 0.165500
vt 0.714900 0.223000
vt 0.680700 0.218900
vt 0.670400 0.192500
vt 0.852500 0.176600
vt 0.862400 0.198300
vt 0.828800 0.216200
vt 0.823100 0.196000
vt 0.615100 0.209000
vt 0.604400 0.183500
vt 0.637100 0.188100
vt 0.648500 0.213500
vt 0.725100 0.246300
vt 0.752400 0.224800
vt 0.759900 0.247100
vt 0.628900 0.232300
vt 0.660100 0.237700
vt 0.661200 0.163300
vt 0.628500 0.160000
vt 0.596600 0.155800
vt 0.643900 0.255000
vt 0.673700 0.261000
vt 0.735800 0.268800
vt 0.768300 0.270200
vt 0.692000 0.242800
vt 0.704400 0.265600
vt 0.797100 0.246900
vt 0.832800 0.237600
vt 0.833300 0.265200
vt 0.801400 0.269600
vt 0.794900 0.230500
vt 0.791300 0.209900
vt 1.896300 0.908700
vt 1.908800 0.904700
vt 1.911700 0.923900
vt 1.898300 0.925700
vt 1.912900 0.944500
vt 1.900000 0.943900
vt 1.889700 0.876500
vt 1.902000 0.868900
vt 1.905600 0.886400
vt 1.892900 0.892400
vt 2.865400 0.862800
vt 2.870500 0.879100
vt 2.847200 0.881500
vt 2.842000 0.864300
vt 2.822900 0.883800
vt 2.818100 0.865600
vt 2.798200 0.884700
vt 2.794200 0.865600
vt 2.769900 0.865600
vt 2.772799 0.885900
vt 2.745200 0.865500
vt 2.747100 0.886500
vt 2.720500 0.865400
vt 2.721400 0.885900
vt 2.697000 0.884600
vt 2.696500 0.865400
vt 2.674300 0.883900
vt 2.673300 0.866000
vt 2.721900 0.906500
vt 2.749600 0.907100
vt 2.751900 0.925500
vt 2.720400 0.928100
vt 2.836100 0.918000
vt 2.808200 0.920500
vt 2.802800 0.903000
vt 2.828800 0.901000
vt 2.780000 0.922700
vt 2.776300 0.905000
vt 2.917300 0.876800
vt 2.921000 0.891600
vt 2.898400 0.892400
vt 2.893500 0.877500
vt 2.853400 0.897700
vt 2.860600 0.913200
vt 2.876100 0.894500
vt 2.882700 0.908900
vt 2.846500 0.986900
vt 2.821700 0.992100
vt 2.817700 0.974100
vt 2.841300 0.971200
vt 2.693800 0.920800
vt 2.673300 0.916600
vt 2.674600 0.901100
vt 2.696700 0.903300
vt 2.610700 0.906700
vt 2.607100 0.887700
vt 2.631500 0.885200
vt 2.634000 0.902700
vt 2.654400 0.900800
vt 2.656200 0.915200
vt 2.639400 0.918300
vt 2.913600 0.860700
vt 2.888900 0.861600
vt 2.652900 0.884200
vt 2.657300 0.924900
vt 2.647000 0.930500
vt 2.668800 0.928900
vt 2.685200 0.934500
vt 2.731400 0.944400
vt 2.715500 0.948400
vt 2.703700 0.941200
vt 2.900700 0.933400
vt 2.913600 0.944400
vt 2.896800 0.953100
vt 2.883100 0.940100
vt 2.861300 0.967800
vt 2.869400 0.981000
vt 2.756600 0.941900
vt 2.878500 0.960500
vt 2.890400 0.973100
vt 2.890400 0.922000
vt 2.908700 0.917800
vt 2.915800 0.927600
vt 2.925100 0.915900
vt 2.926200 0.923500
vt 2.784100 0.939500
vt 2.813200 0.937800
vt 2.659300 0.939200
vt 2.704300 0.974800
vt 2.682800 0.968400
vt 2.693200 0.954300
vt 2.711300 0.959600
vt 2.813900 0.954600
vt 2.838900 0.953900
vt 2.620400 0.925300
vt 2.870100 0.928100
vt 2.732800 0.959600
vt 2.759400 0.958300
vt 2.845000 0.936900
vt 2.786800 0.956600
vt 2.855300 0.956400
vt 2.865400 0.947900
vt 2.928000 0.936000
vt 2.763400 0.979500
vt 2.731000 0.977900
vt 2.928800 0.954700
vt 2.910700 0.964800
vt 2.903300 0.906000
vt 2.923500 0.904800
vt 2.944300 0.944200
vt 2.791100 0.977400
vt 2.632200 0.939700
vt 2.651400 0.867400
vt 2.675200 0.946900
vt 2.670500 0.983300
vt 2.650100 0.974300
vt 2.663600 0.960100
vt 2.646700 0.950900
vt 2.724300 0.997400
vt 2.694000 0.991300
vt 2.764900 0.997800
vt 2.794400 0.995900
vt 2.630900 0.868800
vt 2.609100 0.869900
s 1
usemtl BraSG
f 3/1/1 2/2/2 1/3/3 4/4/4
f 5/5/5 3/1/1 4/4/4 6/6/6
f 7/7/7 5/5/5 6/6/6 8/8/8
f 10/9/9 9/10/10 7/7/7 8/8/8
f 9/10/10 10/9/9 12/11/11 11/12/12
f 14/13/13 13/14/14 11/12/12 12/11/11
f 13/14/14 14/13/13 16/15/15 15/16/16
f 15/16/16 16/15/15 18/17/17 17/18/18
f 17/18/18 18/17/17 20/19/19 19/20/20
f 21/21/21 19/20/20 20/19/19 22/22/22
f 20/19/19 24/23/23 23/24/24 22/22/22
f 18/17/17 25/25/25 24/23/23 20/19/19
f 16/15/15 26/26/26 25/25/25 18/17/17
f 14/13/13 27/27/27 26/26/26 16/15/15
f 12/11/11 28/28/28 27/27/27 14/13/13
f 10/9/9 29/29/29 28/28/28 12/11/11
f 8/8/8 30/30/30 29/29/29 10/9/9
f 6/6/6 31/31/31 30/30/30 8/8/8
f 4/4/4 32/32/32 31/31/31 6/6/6
f 1/3/3 33/33/33 32/32/32 4/4/4
f 2/2/2 3/1/1 35/34/34 34/35/35
f 3/1/1 5/5/5 36/36/36 35/34/34
f 5/5/5 7/7/7 37/37/37 36/36/36
f 7/7/7 9/10/10 38/38/38 37/37/37
f 9/10/10 11/12/12 39/39/39 38/38/38
f 13/14/14 40/40/40 39/39/39 11/12/12
f 15/16/16 41/41/41 40/40/40 13/14/14
f 17/18/18 42/42/42 41/41/41 15/16/16
f 19/20/20 43/43/43 42/42/42 17/18/18
f 21/21/21 44/44/44 43/43/43 19/20/20
usemtl BodySG
f 47/45/45 46/46/46 165/47/47 164/48/48
f 165/47/47 168/49/49 167/50/50 166/51/51
f 50/52/52 52/53/53 171/54/54 54/55/55
f 172/56/56 175/57/57 174/58/58 173/59/59
f 177/60/60 168/49/49 179/61/61 178/62/62
f 180/63/63 172/56/56 173/59/59 181/64/64
f 170/65/65 166/51/51 174/58/58 169/66/66
f 175/57/57 176/67/67 169/66/66 174/58/58
f 182/68/68 180/63/63 181/64/64 183/69/69
f 184/70/70 177/60/60 178/62/62 185/71/71
f 183/69/69 181/64/64 187/72/72 186/73/73
f 191/74/74 190/75/75 189/76/76 188/77/77
f 185/71/71 178/62/62 191/74/74 188/77/77
f 190/75/75 191/74/74 192/78/78 171/54/54
f 178/62/62 179/61/61 192/78/78 191/74/74
f 164/48/48 165/47/47 166/51/51 170/65/65
f 181/64/64 173/59/59 167/50/50 187/72/72
f 166/51/51 167/50/50 173/59/59 174/58/58
f 187/72/72 167/50/50 168/49/49 177/60/60
f 177/60/60 184/70/70 186/73/73 187/72/72
f 171/54/54 192/78/78 48/79/79 54/55/55
f 179/61/61 46/46/46 48/79/79 192/78/78
f 168/49/49 165/47/47 46/46/46 179/61/61
usemtl BodySG1
f 61/80/80 62/81/81 57/82/82 59/83/83
f 59/83/83 57/82/82 52/84/53 50/85/52
f 51/86/84 60/87/85 56/88/86 53/89/87
f 62/81/81 61/80/80 53/89/87 56/88/86
usemtl BodySG2
f 69/90/88 91/91/89 70/92/90 137/93/91
f 137/93/91 70/92/90 71/94/92 138/95/93
f 71/94/92 72/96/94 139/97/95 138/95/93
f 140/98/96 139/97/95 72/96/94 73/99/97
f 141/100/98 140/98/96 73/99/97 74/101/99
f 142/102/100 141/100/98 74/101/99 75/103/101
f 75/103/101 76/104/102 143/105/103 142/102/100
f 76/104/102 79/106/104 144/107/105 143/105/103
f 80/108/106 81/109/107 77/110/108 78/111/109
f 67/112/110 128/113/111 83/114/112 84/115/113
f 68/116/114 77/110/108 81/109/107 85/117/115
f 73/99/97 72/96/94 83/114/112 85/117/115
f 66/118/116 65/119/117 94/120/118 87/121/119
f 67/112/110 84/115/113 88/122/120 90/123/121
f 90/123/121 88/122/120 89/124/122 146/125/123
f 59/126/83 50/127/52 159/128/124 123/129/125
f 163/130/126 82/131/127 93/132/128 92/133/129
f 85/117/115 83/114/112 128/113/111 68/116/114
f 95/134/130 157/135/131 150/136/132 105/137/133
f 133/138/134 96/139/135 160/140/136 105/137/133
f 80/108/106 92/133/129 76/104/102 75/103/101
f 92/133/129 93/132/128 79/106/104 76/104/102
f 131/141/137 66/118/116 87/121/119 86/142/138
f 84/115/113 83/114/112 72/96/94 71/94/92
f 88/122/120 70/92/90 91/91/89 89/124/122
f 70/92/90 88/122/120 84/115/113 71/94/92
f 85/117/115 81/109/107 74/101/99 73/99/97
f 75/103/101 74/101/99 81/109/107 80/108/106
f 93/132/128 133/138/134 134/143/139 79/106/104
f 87/121/119 94/120/118 89/124/122 91/91/89
f 91/91/89 69/90/88 86/142/138 87/121/119
f 96/139/135 98/144/140 125/145/141 160/140/136
f 99/146/142 98/144/140 96/139/135 82/131/127
f 82/131/127 163/130/126 155/147/143 99/146/142
f 78/111/109 101/148/144 100/149/145 162/150/146
f 110/151/147 122/152/148 102/153/149 114/154/150
f 129/155/151 61/156/80 59/126/83 123/129/125
f 78/111/109 77/110/108 135/157/152 101/148/144
f 116/158/153 53/159/87 61/156/80 129/155/151
f 110/151/147 118/160/154 124/161/155 103/162/156
f 64/163/157 63/164/158 103/162/156 124/161/155
f 77/110/108 68/116/114 104/165/159 135/157/152
f 68/116/114 128/113/111 108/166/160 104/165/159
f 98/144/140 99/146/142 136/167/161 125/145/141
f 149/168/162 153/169/163 132/170/164 106/171/165
f 123/129/125 159/128/124 130/172/166 113/173/167
f 105/137/133 160/140/136 121/174/168 95/134/130
f 114/154/150 115/175/169 118/160/154 110/151/147
f 100/149/145 101/148/144 107/176/170 106/171/165
f 109/177/171 107/176/170 101/148/144 135/157/152
f 128/113/111 67/112/110 111/178/172 108/166/160
f 111/178/172 67/112/110 90/123/121 115/175/169
f 135/157/152 104/165/159 112/179/173 109/177/171
f 117/180/174 113/173/167 111/178/172 127/181/175
f 115/175/169 90/123/121 146/125/123 118/160/154
f 122/152/148 110/151/147 103/162/156 126/182/176
f 107/176/170 109/177/171 156/183/177 154/184/178
f 129/155/151 117/180/174 127/181/175 116/158/153
f 122/152/148 55/185/179 51/186/84 102/153/149
f 94/120/118 147/187/180 146/125/123 89/124/122
f 147/187/180 94/120/118 65/119/117 148/188/181
f 53/159/87 116/158/153 102/153/149 51/186/84
f 117/180/174 129/155/151 123/129/125 113/173/167
f 55/185/179 122/152/148 126/182/176 58/189/182
f 127/181/175 111/178/172 115/175/169 114/154/150
f 108/166/160 111/178/172 113/173/167 130/172/166
f 82/131/127 96/139/135 133/138/134 93/132/128
f 158/190/183 156/183/177 109/177/171 112/179/173
f 130/172/166 112/179/173 104/165/159 108/166/160
f 159/128/124 158/190/183 112/179/173 130/172/166
f 151/191/184 121/174/168 160/140/136 125/145/141
f 116/158/153 127/181/175 114/154/150 102/153/149
f 79/106/104 134/143/139 145/192/185 144/107/105
f 99/146/142 155/147/143 120/193/186 136/167/161
f 45/194/187 49/195/188 119/196/189 153/169/163
f 118/160/154 146/125/123 147/187/180 124/161/155
f 124/161/155 147/187/180 148/188/181 64/163/157
f 154/184/178 149/168/162 106/171/165 107/176/170
f 152/197/190 151/191/184 125/145/141 136/167/161
f 105/137/133 150/136/132 134/143/139 133/138/134
f 46/198/46 47/199/45 149/168/162 154/184/178
f 47/199/45 45/194/187 153/169/163 149/168/162
f 136/167/161 120/193/186 119/196/189 152/197/190
f 153/169/163 119/196/189 120/193/186 132/170/164
f 154/184/178 156/183/177 48/200/79 46/198/46
f 54/201/55 48/200/79 156/183/177 158/190/183
f 50/127/52 54/201/55 158/190/183 159/128/124
f 134/143/139 150/136/132 97/202/191 145/192/185
f 157/135/131 161/203/192 97/202/191 150/136/132
f 162/150/146 100/149/145 106/171/165 132/170/164
f 132/170/164 120/193/186 155/147/143 162/150/146
f 162/150/146 155/147/143 163/130/126 78/111/109
f 92/133/129 80/108/106 78/111/109 163/130/126
